<?xml version="1.0" encoding="UTF-8"?>
<svg version="1.1" viewBox="0 0 1856 2000" width="464" height="500" xmlns="http://www.w3.org/2000/svg">
<path transform="translate(877,37)" d="m0 0 34 1 29 3 18 4 19 7 18 8 27 16 16 12 13 11 24 24 12 17 8 13 8 14 1 3 4-1 10-13 8-9 14-11 10-6 19-7 14-3 7-1h23l21 3 19 5 15 6 16 9 16 12 12 12 12 19 7 15 11 20 6 10 10 25 7 26 4 20 2 18v20l-4 23-2 22-1 14-4 20-8 16-6 10-9 11-13 13-17 12-16 8-19 7-21 5-7 1h-15l-31-4h-3l-3 19-4 27-4 17-7 20-10 19-11 16-9 11-14 14-14 11-21 13-35 17v3l3 1h16l20-4 19-7 20-9 15-9 10-8 14-15 5-8 7-16 3-10h4l7 30 15 60 10 33 13 43 9 30 10 28 8 25 15 44 9 24 9 27 18 45 13 33 16 39 20 46 10 22 10 23 11 24 7 14 11 25 22 46 12 25 19 39 17 35 35 70 11 24 19 38 7 16 19 38 15 33 10 19 6 12 9 29 5 14-1 4-5-5-11-23-17-34-42-72-12-20-15-24-13-21-11-18-12-19-12-20-11-19-17-29-10-18-12-22-15-29-13-24-20-40-13-28-12-26-14-30-10-24-18-43-14-36-12-30-8-22-22-66-14-44-16-54-12-44-10-38-10-40-8-38-1-12-8 7-9 9-5 6-8 7-10 8-16 8-16 7-20 5-14 2-14 1h-28l-18-2-26-5-33-10-25-10-20-10-21-12-19-12-16-12-11-9-10-9-12-6 2 9 10 13 12 14 9 11 12 12 22 18 20 13 23 13 19 8 28 9 22 5 14 2 16 1h21l26-3 17-4 5-1v2l-16 10-13 6-27 8h-2l2 15 5 9 11 10 15 11 10 7 9 8 6 10 3 12v13l-3 13-9 19-5 8-3 8v11l6 10 8 9 10 6 10 1h10l-4 4-7 3h-13l-11-4-8-5-7-7-4-8-1-4v-10l4-12 8-16 6-14 1-4v-13l-6-12-6-7-13-9-23-13-13-9-7-7-6-11-5-18-5-2-28-5-16-3 1 17 4 23 9 36 8 27 9 21 10 19 11 17 8 10 13 15 14 14 15 11 11 7 25 13 17 9 11 6 22 13 10 8 10 9 8 8 11 16 8 16 7 19 3 13 1 8v24l-3 18-5 16-9 21-11 20-12 16-12 14-14 15-16 16-8 7-11 10-11 9-13 10-16 12-18 13-24 16-22 14-32 19-21 12-22 12-23 13-25 14-22 12-18 10-19 10-23 11-22 11-33 15-27 13-30 12-31 13-20 8-28 11-16 8-29 14-9 4h-2l-1 5-24 1-11 3-2-1 1-4 6-4 45-18 25-13 21-13 12-8 19-14 13-11 13-10 14-12 16-15 20-18 8-7 15-14 45-45 7-8 12-12 7-8 24-26 3-4h2l2-4 16-17 10-11 10-13 9-10 5-6v-2l-22-15-13-8-15-8-17-7-27-8-19-3h-32l-24 4-27 7-21 8-17 8-23 14-21 16-14 12-10 9-7 6-2-7-5-21-6-21-7-16-12-20-9-11-7-7-4-1-8 6-10 9-24 24-15 20-6 9-7 16-5 17-2 12v26l4 24 6 21 7 18 12 26 9 20 12 23 13 22 9 16 11 17 8 13 2 5-5 3-29 9-36 12-32 9-44 13-26 9-15 2h-8l-4-1v-2l12-3 24-5 12-5 1-3-4-14-9-27-13-40-10-28-15-50-13-44-20-78-10-36-17-69-10-44-4-24-1-9-1-25v-18l2-27 10-95 4-42 2-16 3-7 4-5 13-8 21-10 14-9 19-14 9-8 10-7 11-6 4-1h11l15 4 13 5 37 15 19 8 8 5-2 4-11 3h-14l-17-3-30-9-18-3-12 6-14 9-1 3 11 1 34 6 15 5 6 4 7 9 9 17 15 24 3 7h-8l-9-4-9-6h-4l-1 7-1 30-4 1-4-4-7-18-3-4h-6l-8 9-10 18-8 17-14 36-8 21-8 15-12 14-7 10-5 13-2 10v11l4 22 7 28 9 26 13 37 11 28 14 30 11 23 9 16 5 6h2l5-28 6-23 9-21 8-13 9-10 7-8 8-8 11-9 10-9 10-13 8-16 7-21 10-35 10-27 13-30 6-11 10-14 11-13 9-8 15-10 14-7 15-4 31-3 42-2 13-2 21-7 11-7 10-9 5-5 5-6 7-14 3-11 2-20v-28l-4-36-6-29-7-16-9-14-7-6-8-3h-15l-21 5-26 8-19 5-19 3h-16l-9-3-6-4-6-7-2-7-1-20-3-12-5-8-8-7-12-10-1-4 5-14-1-5-5-2-7-5-2-3 1-6 5-9 1-7-5-9-5-5-5-4-26-13-4-5-1-4 5-10 7-7 9-11 10-15 9-17 7-19 1-10-4-4-12-6-9-7-2-3 6 1 8 3h13l-1-10-5-16-8-21-5-19-2-14v-31l3-22 5-26 5-18 1-6h-7l-6 4-11 12-9 11-7 9-13 23-10 21-6 7-7 4-2 3-1 13 3 21 5 16 8 18 5 13 3 13v16l-4 11-9 13-13 15-9 10-9 12-2 9v16l5 14 10 14 10 5v2h-4l3 6 3 5 3 7 1 9-2 11-1 3-5-12-12-23-10-13-8-13-5-11-2-7v-14l4-14 7-11 11-13 12-13 7-14 1-5v-12l-3-10-8-15-10-14-7-10-8-15-7-20-3-11-1-7v-17l4-18 6-16 9-19 7-10 8-10 7-7 8-14 3-7 3-19 6-21 7-16 7-11 9-10 10-10 14-10 15-10 16-7 24-8 30-7 27-4 36-1 16-1 4 4 7 8 13 10 22 18 5 3 4-1 1-2h7l-12-9-12-13-8-7-7-8-1-6 3-9 1-5v-8l-3-12-4-6-11-10-2-3 1-5 6-9 9-10 2-3h2v-2l14-11 18-10 18-7 21-5 20-3zm-104 67-4 5-4 9-2 9v17l3 11 8 11 13 13 3 9 2 5 4 5v8l9-1-1-11v-21l5-18 2-11-1-8-9-14-10-9-13-9zm51 40-5 2-3 5-3 18 1 13 4 8 4 5 8 6 10 6 12 2v-16l2-4 1-14-3-12-6-9-8-6-11-4zm47 11-4 5-2 10v18l3 12 9 6 16 9 3-3 5-14 1-4v-15l-4-9-7-8-6-5-6-2zm-154 21-9 4-11 11-7 10-1 6 4 6 10 5 11 2h12l11-3 9-5 18-12-2-4-7-7-14-9-12-4zm64 30-14 2-11 7-7 6v5l6 7 12 6 5 1h8l7-2 5-5v-15l4 1-2-5-9-4zm28 6-5 6-5 1 1 3h16l-2-5-3-5zm7 10m77 4m2 2m7 6m2 1m2 1 2 2 4 1v-2zm-399 147m4 0m-2 4m276 163 2 6 6 12 11 11 10 8 11 10 16 11 12 7 28 13 18 6 19 5 19 4 10 1h40l4-3-1-4-8-4-7-2-21-3-32-8-21-7-32-13-20-10-17-10-23-15-13-9-9-6zm279 41-1 2 3-1zm-176 152-9 4-5 5-3 6v8l4 6 6 7 6 2h12l7-4 6-9 1-9-4-8-5-5-5-3zm-4 54 1 5 3 3 5 1 5-2 2-2v-3h-3l-1 2-6-2-2-2zm3 31-7 4-4 6v9l6 8 6 3 9-1 7-5 2-6v-7l-3-8-5-3zm-485 63-13 5-9 7-6 8-5 12v27l3 7 2 2 4-1 8-11 12-19 13-22 5-9-1-5-2-1z" fill="#FDFDFD"/>
<path transform="translate(1525,1316)" d="m0 0 4 1 11 9 8 7 4 6 14 14 7 8 4 4v2h2l6 7 13 13 9 11 10 12 15 20 10 13 14 22 9 16 12 22 14 31 11 33 7 30 5 31 2 23v32l-2 23-5 28-6 23-10 26-10 21-12 19-12 16-11 13-7 8-10 10-8 7-14 12-16 11-18 10-19 9-21 8-22 6-28 5-33 3h-43l-23-2-29-5-34-9-43-16-30-13-54-27-22-12-26-15-20-12-27-16-39-22-14-8-24-14-10-6-12-5-5-1h-12l-12 4-24 12-19 10-40 20-23 11-41 18-26 11-30 11-32 10-31 8-28 6-27 3h-43l-20-3-23-6-21-8-19-9-15-9-14-12-12-12-6-8 1-6 6 2 17 16 9 8 11 7 17 8 30 10 21 4 21 2h23l26-2 34-6 35-9 25-9 26-10 26-11 24-12 23-11 17-9 23-13 28-15 13-8 17-10v-4l-8-6-17-8-24-10-36-14-34-13-25-8-52-16-28-7-36-7-27-4-41-4-39-2h-20l-25 1-60 6-30 5-49 11-27 9-41 14-36 16-21 10-22 12-27 16-30 20-19 14-16 13-9 7-13 11-11 9-17 16-18 18-9 11-14 18-5 6-6 5-3 4h-2l-2 4h-2l-2 4-8 8-6 1 1-6 8-11 8-10 14-18 9-11 9-10 7-8 5-6h2l2-4 12-12 7-8 23-23 8-7 10-9 14-11 21-16 30-20 17-10 21-12 20-11 19-9 16-8 27-11 37-13 37-12 36-8 40-8 30-4 43-3 16-1h61l52 4 29 4 78 16 23 6 30 9 29 9 29 10 21 9 26 11 28 12 24 11 4 2h7l20-9 29-12 28-10 43-15 31-8 24-5 42-6 23-2h59l31 3 26 5 29 8 15 6 16 8 15 8 11 8 14 12 10 11 10 15 8 17 4 14 2 16-1 15-4 15-5 13-5 10-7 9-9 10h-2v2l-10 8-18 11-8 4-3-1 14-11 14-12 7-8 9-14 5-13 3-13v-20l-4-20-8-19-7-11-8-10-7-7-16-12-18-10-15-7-26-8-37-8-23-3h-59l-26 3-37 7-31 7-34 10-26 9-30 12-17 8-5 4 2 5 6 5 42 24 16 8 27 15 22 12 26 14 15 9 24 13 29 15 27 13 36 16 13 5 40 12 27 6 23 4 10 1h48l26-4 17-4 24-8 21-10 16-10 11-9 10-9 14-14 9-11 11-16 9-16 7-15 8-24 6-26 5-32 2-22v-20l-2-23-5-32-8-36-6-19-7-20-9-21-14-29-13-23-15-24-11-16-14-19-14-18-12-14-10-13-17-17-8-7z" fill="#FDFDFD"/>
<path transform="translate(1196,598)" d="m0 0 3 1 7 30 15 60 10 33 13 43 9 30 10 28 8 25 15 44 9 24 9 27 18 45 13 33 16 39 20 46 10 22 10 23 11 24 7 14 11 25 22 46 12 25 19 39 17 35 35 70 11 24 19 38 7 16 19 38 15 33 10 19 6 12 9 29 5 14-1 4-5-5-11-23-17-34-42-72-12-20-15-24-13-21-11-18-12-19-12-20-11-19-17-29-10-18-12-22-15-29-13-24-20-40-13-28-12-26-14-30-10-24-18-43-14-36-12-30-8-22-22-66-14-44-16-54-12-44-10-38-10-40-8-38-1-12-8 7-9 9-5 6-8 7-10 8-16 8-16 7-20 5-7 1h-8l4-2 19-5 20-8 19-10 8-6 4-4 6-5h2l2-5 5-5 9-10 5-8 6-9 7-16 3-10z" fill="#FDFDFD"/>
<path transform="translate(1243,517)" d="m0 0 5 1 4 8 12 39 11 40 12 38 9 28 7 22 16 43 10 26 9 24 12 29 20 48 8 17 11 26 19 40 19 39 11 22 8 14 16 29 15 26 14 23 15 25 22 34 10 15 15 22 24 34 9 12 10 13 13 16 9 11 11 13 12 13 30 32 28 28 8 7 13 12 16 11 10 5 5 2 2-4h5l9 7 4 3-1 5-3 2-8-1-16-6-15-8-17-12-19-14-13-10-13-11-14-12-20-18-16-15-18-18-7-8-13-13-7-8-14-15-9-11-10-11-9-11-11-13-12-17-14-19-11-15-17-26-15-23-10-17-13-21-16-29-14-26-19-38-11-23-13-29-10-22-11-25-11-28-8-20-16-44-15-41-21-66-10-33-15-56-8-33-5-22-1-10 1-1z" fill="#FDFDFD"/>
<path transform="translate(1308,500)" d="m0 0 5 1 4 8 11 30 9 27 13 33 16 40 18 41 10 23 29 58 13 25 9 16 10 18 12 19 14 24 12 20 28 42 16 23 13 18 14 19 14 18 11 13 9 11 11 13 13 15 12 14 13 14 7 8 8 8 7 8 32 32 8 7 13 12 28 22 21 16 12 9 4 5-1 5-10-5-16-11-17-12-19-14-14-11-22-18-15-13-26-24-25-25-7-8-11-11-7-8-12-13-9-11-10-11-10-13-13-16-14-19-16-21-13-19-20-30-24-38-9-15-13-23-12-22-9-17-8-16-14-29-16-36-14-31-17-43-13-34-13-37-10-33-5-21v-5z" fill="#FCFCFC"/>
<path transform="translate(1141,694)" d="m0 0 5 3 4 9 5 19 9 40 7 28 9 31 13 49 8 28 10 31 10 35 15 47 12 41 10 33 14 44 11 37 16 50 8 28 18 53 12 36 17 50 16 50 13 32 5 15 7 26 12 38 4 7 13 3v2l-4 1-12-2-5-6-11-23-19-48-11-29-16-43-10-29-15-43-21-62-10-33-10-31-14-45-12-40-9-29-17-56-19-63-19-62-16-57-10-38-8-33-8-38-8-43-1-12z" fill="#FDFDFD"/>
<path transform="translate(1113,232)" d="m0 0h18l1 4-2 13-8 16-6 8-7 6-12 6-45 10-21 2v4l11 2 12 3 18 1h37l13-1v-2l-7-7 2-4 9-10 9-8 9-4 8-2h12l13 3 9 4 8 3-1 5-10 13-10 9-14 7-15 3-29 2-37 1-45-1-16 2-9 2h-17l-14-7-2-4-4-2-5-10v-11l1-3h2l1-3 7-3-1-4-2-3 1-4 1-1 11-2h10l12 4 11 6 7 6v2l4 2 8 3h7l27-7 3-2-1-5v-9l4-11 5-9 7-6 10-5z" fill="#1B1B1B"/>
<path transform="translate(1123,1334)" d="m0 0h2l-1 4-8 10-18 13-63 42-38 25-16 10-15 9-24 14-28 16-29 15-30 15-50 21-37 15-21 11-8 2h-29l4-11 2-2h27l10-4 25-11 26-12 17-8 19-10 35-17 16-8 27-14 19-10 20-11 17-10 22-12 20-12 22-13 21-14 17-11 31-21z" fill="#B0B0B0"/>
<path transform="translate(1197,1058)" d="m0 0 2 1 9 25 3 18v24l-3 18-5 16-9 21-11 20-12 16-12 14-14 15-16 16-8 7-11 10-11 9-13 10-16 12-18 13-24 16-22 14-32 19-21 12-22 12-23 13-25 14-22 12-18 10-19 10-23 11-22 11-33 15-27 13-30 12-31 13-20 8-28 11-16 8-29 14-9 4h-2l-1 5-24 1-11 3-2-1 1-4 6-4 45-18 2-1 13-2 19-6 12-5 16-6 21-8 17-6 8-4 28-13 28-12 16-8 41-19 29-15 30-15 23-13 28-14 26-15 17-10 10-5 17-11 17-10 10-6 14-10 15-9 12-8 19-13 43-33 12-10 9-7 10-9 18-18h2l2-4 9-10 10-13 12-19 10-18 6-15 3-11 4-21v-29l-3-15-1-8-2-3z" fill="#B1B1B1"/>
<path transform="translate(1368,302)" d="m0 0h1l2 17v20l-4 23-2 22-1 14-4 20-8 16-6 10-9 11-13 13-17 12-16 8-19 7-21 5-7 1h-15l-31-4h-3l-3 19-4 27-4 17-7 20-10 19-11 16-9 11-14 14-14 11-21 13-35 17-4 2-1-3 5-4 23-11 16-9 17-11 16-15h2l2-4 9-10 11-15 8-13 4-9 7-19 5-17 3-15 2-18 3-12 3-4 20 1 6 1h21l13-2 22-5 20-9 15-9 11-9 16-16 9-14 4-10v-2h2l-1-2-5 4-8 10-10 10-12 9-11 6-14 6-12 3h-7l2-2 14-6h3v-2l11-7 17-14 9-10 13-18 8-14 8-18 7-22 2-13 1-14z" fill="#B0B0B0"/>
<path transform="translate(852,204)" d="m0 0 16 1 5 2 8 6v2l3 1v2h3l4 7 2 3 3 1v-6l4-2 1-3h8l3 4 1 8-4 4-4 2v2l-5-1-1 3h-2l-2 6-5 4-3 7-2 2-14 3-13-2-9-4-10-9-7-7-15-10-9-7 1-2 7 1h4l5 2 4-1 4-10 5-4 3-1h8l3 1z" fill="#1B1B1B"/>
<path transform="translate(550,312)" d="m0 0 4 1v4l-7 9-9 10-10 16-1 7 4-1 1-5 4-6 7-6 9-9h2l2-4h2l2-4 4 1-14 15-9 11-7 9-13 23-10 21-6 7-7 4-2 3-1 13 3 21 3 13-4-4-6-19-2-10v-25l3-14 4-13 5-12 6-11 10-14 4-6 3-3h2l1-3 6-5 5-6h2v-2l7-5z" fill="#B0B0B0"/>
<path transform="translate(919,246)" d="m0 0h11l8 3 8 6 1 4h2l3 10v7l-3 9-4 6-3 3-11 5-4 1h-7l-13-5-5-5-5-8-1-8v-7l7-13 11-7z" fill="#1B1B1B"/>
<path transform="translate(917,317)" d="m0 0h10l8 4 5 10 1 4v7l-3 10-6 10-8 9-13 9-3 3-3-1-6-16-3-11v-17l4-11 4-5 8-4z" fill="#1B1B1B"/>
<path transform="translate(965,341)" d="m0 0 6 1 10 7 5 5 6 7 5 10 1 3v10l-5 16-5 10-7-1-10-6-10-9-5-8-3-9v-8l6-16z" fill="#1B1B1B"/>
<path transform="translate(893,1800)" d="m0 0 2 1-19 10-41 18-32 14-36 13-29 9-31 8-28 6-27 3h-43l-20-3-23-6-21-8-19-9-15-9-14-12-12-12-6-8 1-6 6 2 17 16 9 8 11 7 11 6-2 1-5-1-1 2 5 2 10 7 25 9 21 4 19 2h57l26-3 24-4 32-8 13-4 12-5 36-12 10-4 25-11 17-7 13-6 16-7z" fill="#ADADAD"/>
<path transform="translate(370,1669)" d="m0 0 4 1-41 14-36 16-21 10-22 12-27 16-30 20-19 14-16 13-9 7-13 11-11 9-17 16-18 18-9 11-14 18-5 6-6 5-3 4h-2l-2 4h-2l-2 4-8 8-6 1 1-6 8-11 8-10 14-18 9-11 8-5 7-8 3-3h2l1-3 8-7 7-6h2v-2l17-13 12-11 14-11 4-3h2v-2l14-10 11-8 24-16 22-14 14-8 11-6 19-10 20-9 26-11 9-4 11-4 17-5z" fill="#B0B0B0"/>
<path transform="translate(808,252)" d="m0 0h10l9 2 5 4 4 10 1 2 4-1 7-2 10 1 2 3-1 4-4 5-10 6-6 3h-7l-1-3-7-1v2l-10 5-3 1h-11l-13-4-3-3-2-5 1-7 6-10 5-5 7-5z" fill="#1B1B1B"/>
<path transform="translate(1026,1398)" d="m0 0 2 1-7 6-30 20-8 5-5 4-16 10-9 5-12 8-11 6-17 10-16 8-23 12-19 9-27 12-13 6-16 6-11 4-16 3-1-2 18-8 25-12 16-8 51-25 16-8 22-12 16-8 22-12 17-10 22-12 20-12z" fill="#FEFEFE"/>
<path transform="translate(1103,329)" d="m0 0 9 2 14 8 7 7 8 14 2 7v14l-3 6-10-1-18-6-6-4-7-7-4-8-2-13 1-12 4-5z" fill="#1B1B1B"/>
<path transform="translate(951,175)" d="m0 0 7 1 2 8 3 6 2 9v8l-4 10-1 3-2 1-1 3-12 9-4 1-5-3-8-7-4-9-1-9 2-9 6-9 8-7z" fill="#1B1B1B"/>
<path transform="translate(1316,1277)" d="m0 0 2 3 14 40 26 78 12 38 13 32 5 15 7 26 12 38 4 7 13 3v2l-4 1-12-2-5-6-11-23-19-48-7-18 1-3 7 16 2 1-3-14-7-23-6-16-10-34-4-9-6-23-6-21-2-1-1-5 1-2h-2l-7-21-7-27z" fill="#B0B0B0"/>
<path transform="translate(1200,901)" d="m0 0 2 2 9 29 10 35 15 47 12 41 10 33 14 44 11 37 16 50 8 28 7 21v5l-2 1-10-33-2-5v-4h-2l-4-11-8-27-4-16-3-5-10-31-3-8-7-24-8-27-5-14-6-23-7-22-4-12-8-33-2-6v-5h-3l-4-13-5-18-5-24-3-3 2-2z" fill="#AFAFAF"/>
<path transform="translate(1368,302)" d="m0 0h1l2 17v20l-4 23-2 22-1 14-2 6-2-3-10 17-10 13-11 11-12 9-11 6-14 6-12 3h-7l2-2 14-6h3v-2l11-7 17-14 9-10 13-18 8-14 8-18 7-22 2-13 1-14z" fill="#1C1C1C"/>
<path transform="translate(870,283)" d="m0 0 9 2 5 6 2 6v7l-4 10-3 1v2l-11 5h-13l-12-4-4-5 1-7 10-16 6-4 6-2z" fill="#1B1B1B"/>
<path transform="translate(1056,329)" d="m0 0h7l6 3 5 4 5 8 1 4v14l-2 7-5 4-13-3-8-5-6-7-4-10v-9l5-6z" fill="#1B1B1B"/>
<path transform="translate(1080,801)" d="m0 0 5 2 11 10 6 10 3 12v13l-3 13-9 19-5 8-3 8v11l6 10 8 9 10 6 10 1h10l-4 4-7 3h-13l-11-4-8-5-7-7-4-8-1-4v-10l4-12 8-16 5-1 1-7 7-20 1-14-2-8-4-8-6-5-4-5v-2l-4-2z" fill="#AEAEAE"/>
<path transform="translate(1046,221)" d="m0 0 6 2 2 3v17l-4 8-4 4h-2l-1 3-7 2h-19l-3-3 1-11 5-13 12-9z" fill="#1B1B1B"/>
<path transform="translate(1706,1739)" d="m0 0 1 4-6 20-11 27-10 19-14 21-11 14-12 14-12 12-8 7-14 12-16 11-18 10-19 9-21 8-22 6-28 5-33 3h-43l-23-2-29-5-12-3v-1l14 1 31 5 14 1h48l21-1 25-4 22-4 14-4 15-5 10-5 16-7 19-11 9-7 6-4h2v-2l11-9 11-11 7-8 8-8 8-10 10-13 6-9h2l2-5 4-6 7-14 8-19 5-14z" fill="#B1B1B1"/>
<path transform="translate(1009,332)" d="m0 0 8 1 10 9 4 5 1 3v12l-5 17-5-1-11-7-7-8-4-9v-9l3-8z" fill="#1B1B1B"/>
<path transform="translate(989,223)" d="m0 0h9l5 3 3 4v10l-3 7-4 4h-2v2l-7 4-6 1-8-2-5-5-2-4v-9l2-5 5-5 7-4z" fill="#1B1B1B"/>
<path transform="translate(512,491)" d="m0 0 2 2 5 19v16l-4 11-9 13-13 15-9 10-9 12-2 9v16l5 14 10 14 10 5v2h-4l3 6 3 5 3 7 1 9-2 11-1 3-5-12-12-23-10-13 1-2 5 6v2l3-3-2-6-9-18-3-9v-15l1-7 5-9 7-10 12-12 4-5h2l2-4 6-8 5-8 2-6 1-7v-9l-2-11-2-6z" fill="#B0B0B0"/>
<path transform="translate(1230,140)" d="m0 0h10l22 4 15 5 20 11 16 13 7 5 15 30 2 5-5-5-8-10-9-10-13-11-18-12-14-8-15-7-25-8z" fill="#1B1B1B"/>
<path transform="translate(808,252)" d="m0 0h10l9 2 5 4 4 10 1 2 4-1 7-2 10 1 2 3-1 4-4 5-10 6-6 3h-7l-1-3-7-1v2l-10 5-3 1h-11l-13-4-3-3-2-5 1-7 6-10 5-5 7-5zm2 4-11 4-9 8-4 8v7l6 4 5 2h13l7-2 7-4 5-5 3-7v-6l-2-4-7-5z" fill="#B1B1B1"/>
<path transform="translate(1196,598)" d="m0 0 3 1 7 30 15 60 10 33 13 43 9 30 10 28 8 25 11 32-1 3-3-4-5-15-6-19-3-6-4-11-6-21-3-10-5-12-10-31-5-17-5-18-7-26-3-7-4-13-4-14-4-17-2-13-2-1-3-14z" fill="#B2B2B2"/>
<path transform="translate(1315,507)" d="m0 0 2 2 11 30 9 27 13 33 16 40 18 41 10 23 29 58 13 25 9 16 2 3-1 3-6-9-8-15-12-21-8-16-8-15-7-17-10-19-4-9-7-15-8-18-3-10-3-3-12-32-1-4-3-3-9-27-3-8-2-8-4-3-7-23-4-15-2-7z" fill="#B1B1B1"/>
<path transform="translate(1488,1710)" d="m0 0 5 5 9 14 7 15 4 14 2 16-1 15-4 15-5 13-5 10-7 9-9 10h-2v2l-10 8-18 11-8 4-3-1 14-11 14-12 6-7 7-4 4-5 10-13 5-9 4-12 1-6v-33l-3-12-6-15-8-15-3-4z" fill="#AFAFAF"/>
<path transform="translate(1067,582)" d="m0 0h5l1 4-5 5-4 1-4 4-16 8-10 4-20 4-11 1h-9l-4-1 2-4 8-4 27-8 19-5 15-7z" fill="#B0B0B0"/>
<path transform="translate(545,1521)" d="m0 0 3 3 3 7-5 3-29 9-36 12-32 9-44 13-26 9-15 2h-8l-4-1v-2l12-3 24-5 12-5 9-3 26-6 44-11 29-9 31-11 5-3z" fill="#B1B1B1"/>
<path transform="translate(523,346)" d="m0 0 1 2-9 24-3 9-5 1 1 8-1 2h2v9l1 4-5 6-7 4-2 3-2 9h-1l1-20 3-15 6-18 8-14 7-9h2l2-4z" fill="#1D1D1D"/>
<path transform="translate(742,1203)" d="m0 0h38l21 4 14 4 23 8 1 2-5-1-24-8-19-4-8-1h-32l-24 4-27 7-21 8-17 8-23 14-16 12-2-1 10-9 14-9 22-13 6-4 16-7 25-8 15-4z" fill="#B2B2B2"/>
<path transform="translate(886,701)" d="m0 0h7l3 3 1 3 2 1-2 5-5 4 2 5 4 4v6l-2 3 1 5 5 3-3 1h-11l-9 4-5 5-2 5-1 8-2-2-1-8 5-10 8-6 4-1-2-6-1-1v-7l5-5v-3l-5-4-1-7z" fill="#B1B1B1"/>
<path transform="translate(1177,637)" d="m0 0h5l2 7-5 3-13 13-5 6-8 7-10 8-16 8-16 7-20 5-7 1h-8l4-2 19-5 20-8 19-10 8-6 4-4 6-5h2l2-5 5-5 9-10z" fill="#A6A6A6"/>
<path transform="translate(597,1553)" d="m0 0 2 1-19 10-24 11h-2l-1 5-24 1-11 3-2-1 1-4 6-4 14-6 12-2 17-4 12-3 17-6z" fill="#212121"/>
<path transform="translate(852,204)" d="m0 0 16 1 5 2 8 6v2l3 1v2h3l4 7 2 3 3 1v-6l4-2 1-3h8l3 4 1 8-4 4-4 2v2l-5-1-1 3h-2l-2 6-5 4-3 7-3 2v-4l3-7 4-1 1-8-1-5-5-10v-2l-3-1-5-5v-2l-15-5-10-1v2l-2-1z" fill="#B3B3B3"/>
<path transform="translate(1226,137)" d="m0 0h13l15 2 15 5 14 6 6 3v2l7 1v-4l4 2 12 12 6 9-1 2-16-13-11-7-15-8-17-5-18-3-10-1v2l6 1 24 8 19 10-2 1-32-12-19-4-7-4 1-4z" fill="#B1B1B1"/>
<path transform="translate(771,1539)" d="m0 0 3 1-30 15-5 1h-29l4-11 2-2h17l11 1 24-4z" fill="#202020"/>
<path transform="translate(104,1832)" d="m0 0h2l-2 4-10 10-9 11-14 18-5 6-6 5-3 4h-2l-2 4h-2l-2 4-8 8-6 1 1-6 8-11 6-4 7-8 2-4 6-4 16-16 7-6h2v-2l4-4h2l2-4h2l2-4z" fill="#222"/>
<path transform="translate(1372,1444)" d="m0 0 2 2 10 25 5 16 6 22 12 38 4 7 13 3v2l-4 1-12-2-5-6-10-21-1-11-6-26-7-27-2-6-3-6z" fill="#222"/>
<path transform="translate(1123,1334)" d="m0 0h2l-1 4-8 10-18 13-30 20-22 15-3-1 13-10 15-13 3-5 11-7 22-15z" fill="#292929"/>
<path transform="translate(1525,1316)" d="m0 0 4 1 11 9 8 7 4 6 14 14 7 8 4 4v2h2l6 7 13 13 8 10-2 1-7-8-5-6-2-1v-2l-4-2v-2h-4l-4 1-12-14-11-13-7-10-8-7-7-7-8-7z" fill="#B0B0B0"/>
<path transform="translate(1534,1924)" d="m0 0m-2 1h2v2l-21 6-28 5-33 3h-43l-23-2-29-5-12-3v-1l14 1 31 5 14 1h48l21-1 25-4 22-4z" fill="#B1B1B1"/>
<path transform="translate(1336,784)" d="m0 0 3 4 11 27 20 48 8 17 11 26 19 40 16 33-1 2-4-7-9-15-13-30-9-17-8-16-4-11-10-24-5-10-7-18-4-9-1-4-4-7-8-23z" fill="#B2B2B2"/>
<path transform="translate(1339,1033)" d="m0 0 2 2 11 27 9 21 10 23 10 22 10 23 11 24 7 14 11 25 8 17-1 2-6-11-8-16-1-5h-2l-7-16-5-13-18-36-6-16-5-12-5-10-12-27-1-7h-2v-4h-2l-8-24z" fill="#B1B1B1"/>
<path transform="translate(1596,1580)" d="m0 0 3 4 12 22 10 32 5 14-1 4-5-5-11-23-11-22 1-3 4 6-2-11-5-15z" fill="#AEAEAE"/>
<path transform="translate(512,491)" d="m0 0 2 2 5 19v16l-4 11-9 13-13 15-9 10-9 12-2 9v16l4 12-3-1-5-13v-15l1-7 5-9 7-10 12-12 4-5h2l2-4 6-8 5-8 2-6 1-7v-9l-2-11-2-6z" fill="#B2B2B2"/>
<path transform="translate(541,1636)" d="m0 0h61l20 1 13 2v1h-11l-39-2h-20l-25 1-60 6-30 5-40 9h-5l4-2 14-5 11-2 19-4 29-4 16-2 19-2 6-1z" fill="#B2B2B2"/>
<path transform="translate(1738,1172)" d="m0 0 4 2 16 12 21 16 7 6 1 6-2 1-15-9-17-12-9-6 1-4-2-3v-4l-4-1z" fill="#B0B0B0"/>
<path transform="translate(1238,1665)" d="m0 0h9v1l-28 5-42 9-35 10-29 10-30 12-11 5-3-1 14-7 13-5 11-5 16-6 9-3 20-7 19-6 8-1 8-3 17-3 12-2z" fill="#B2B2B2"/>
<path transform="translate(948,172)" d="m0 0h8l4 3 1 7 4 7 2 6 1 8-5 16-5 6h-2v3l-13 8-6-1-11-10-3-5-2-6v-14l4-10 7-8 11-7zm3 3-12 6-10 9-5 9-1 10 2 9 5 8 8 7 5 1 9-6 5-4 1-3 2-1 4-10 1-3v-8l-3-11-3-6-1-6z" fill="#B1B1B1"/>
<path transform="translate(737,760)" d="m0 0 11 1 3 2-21 2-29 8-26 8-24 4h-16l-9-3v-1h30l36-10 26-8 9-2z" fill="#B1B1B1"/>
<path transform="translate(1141,694)" d="m0 0 5 3 4 9 5 19 9 40 3 13v3l-3-1-3-8-3-14-6-22-2-3-5-20-1-2-1-13-3 1-1-4z" fill="#ACACAC"/>
<path transform="translate(894,610)" d="m0 0 6 1 22 7 22 5 17 3 19 3 18 3 5 2-1 5-7 3h-5l-1-5-11-4-13-2-15-3-28-7-21-7-7-3z" fill="#B2B2B2"/>
<path transform="translate(1082,882)" d="m0 0h1l-1 8-1 3v12l4 11 5 6 8 7 1 3-5 2-7-2-8-8-4-8-1-4v-10l4-12z" fill="#FDFDFD"/>
<path transform="translate(1245,518)" d="m0 0 4 1 6 16 9 30 11 40 7 23-1 4-3-4-9-31-8-24-11-43-5-11z" fill="#B1B1B1"/>
<path transform="translate(963,756)" d="m0 0 2 4 6 32 12 45 7 21 6 13-1 2-6-10-7-16-7-21-4-15-2-14-3-9-3-20z" fill="#B2B2B2"/>
<path transform="translate(420,936)" d="m0 0v3l-10 18-8 17-14 36-8 21-8 15-12 14-7 10-5 13-2 7h-1l1-10 4-10 6-10 6-8 5-5 4-5 12-25 5-15 5-12 10-27 10-18z" fill="#B4B4B4"/>
<path transform="translate(807,221)" d="m0 0 2 1 4 4 14 10 8 6 11 11 6 4 9 3 11 1 8-2 4 1-5 3-3 1-13 1-6-1v-2l-5-1-6-3-3-3v-2l-4-2-7-5v-2l-5-2-9-6v-2l-6-2-7-6-5-3v-1z" fill="#B1B1B1"/>
<path transform="translate(1100,727)" d="m0 0h2v2l-16 10-13 6-27 8h-2l2 15 1 4-3-3-3-10 1-2 2-8 10-3 9-3 12-5 6-5 9-3z" fill="#9D9D9D"/>
<path transform="translate(1737,1399)" d="m0 0 4 1 10 4 2-4h5l9 7 4 3-1 5-3 2-8-1-12-4-3-7-7-5z" fill="#202020"/>
<path transform="translate(1170,794)" d="m0 0 2 2 8 28 13 49 5 17v10l-2-3-8-32-4-13-3-5-4-17-7-33z" fill="#B1B1B1"/>
<path transform="translate(1303,447)" d="m0 0 2 1-11 8h-2v2l-17 7 8-1 12-3 11-5 3 1-17 8-18 5-13 1-3-1 1-3 25-10 5-3z" fill="#B1B1B1"/>
<path transform="translate(1113,230)" d="m0 0h17l4 2v13l-8 18-8 11-10 7-2-1 9-7 7-9 7-15 2-16h-18l-15 3-8 5h-2l-2 4h-2l-2 6-5 10-1-4 8-15h2l2-4 12-6z" fill="#B1B1B1"/>
<path transform="translate(782,200)" d="m0 0 7 1 6 4 9 1 4 5-1 5-2 2-7-1-11-5-5-4-1-6z" fill="#222"/>
<path transform="translate(951,313)" d="m0 0 6 2 6 5 3 5v6l-4 3h-6l-5-5-3-13z" fill="#1B1B1B"/>
<path transform="translate(1456,823)" d="m0 0 4 5 13 21 15 26 14 22 21 31 5 7-1 2-9-12-14-21-9-13-5-7-6-11-8-13-6-9-6-11-8-14z" fill="#B4B4B4"/>
<path transform="translate(1525,1316)" d="m0 0 4 1 11 9 8 7 4 6 14 14-1 2-7-4-2-1v-2l-4-1-4-6-8-7-7-7-8-7z" fill="#242424"/>
<path transform="translate(1616,1411)" d="m0 0 5 4 14 19 11 15 13 21 16 29 7 15-1 2-6-10-10-21-8-13-1-4h-2l-4-7-10-15v-2h-2l-4-7-18-24z" fill="#B1B1B1"/>
<path transform="translate(492,645)" d="m0 0 5 1 1 3h-4l3 6 3 5 3 7 1 9-2 11-1 3-5-12-5-10v-3h3l1-6-4-10z" fill="#282828"/>
<path transform="translate(393,1575)" d="m0 0 11 1-1 2-24 8-15 2h-8l-4-1v-2l12-3 24-5z" fill="#2F2F2F"/>
<path transform="translate(849,269)" d="m0 0 8 1 1 4-5 5-12 7-5 1-2-3 1-6 3-3h2v-2z" fill="#1B1B1B"/>
<path transform="translate(1252,798)" d="m0 0h2l9 25 8 25 11 32-1 3-3-4-5-15-6-19-3-6-4-11-6-21z" fill="#B1B1B1"/>
<path transform="translate(805,202)" d="m0 0 4 4 2 5 4 2v2l5 2 1 1h5l4-8 6-5 10 2v1l-9 3-4 3-3 9-2 2-6-1-5-2-4-5-2-4h-3l-4-5v-2h-6v-1h7z" fill="#B0B0B0"/>
<path transform="translate(861,282)" d="m0 0h14l4 2-2 1-7-1-11 2-6 3-3 1-2 5-7 11-1 7 5 5 10 3h13l9-3v2l-7 3-5 1h-12l-10-3-3-2v-2h-2l-1-2 1-11 3-4 5-9 3-3h3l1-3z" fill="#B1B1B1"/>
<path transform="translate(498,1640)" d="m0 0h10v2l-35 4-28 5-35 8h-5l4-2 14-5 11-2 19-4 29-4z" fill="#B3B3B3"/>
<path transform="translate(480,1809)" d="m0 0 6 2 12 11-1 2-2-1 1 5 3 5 5 5 5 6-4-2-12-11-5-4-8-10-1-3z" fill="#292929"/>
<path transform="translate(901,218)" d="m0 0h8l3 4 1 8-4 4-5 1-7-5-1-7 4-2z" fill="#1B1B1B"/>
<path transform="translate(1710,1388)" d="m0 0 5 2 9 3 1-2 5 2 8 5v2l7 5 1 6-16-8-11-7-9-7z" fill="#AEAEAE"/>
<path transform="translate(1336,784)" d="m0 0 3 4 11 27 10 24 7 17-1 2-3-2-9-23-4-9-1-4-4-7-8-23z" fill="#B2B2B2"/>
<path transform="translate(1315,507)" d="m0 0 2 2 11 30 6 19-1 2-5-4-7-23-4-15-2-7z" fill="#A4A4A4"/>
<path transform="translate(545,1521)" d="m0 0 3 3 3 7-5 3-29 9-22 7 1-3 21-7 22-8 5-3z" fill="#B4B4B4"/>
<path transform="translate(1339,1033)" d="m0 0 2 2 11 27 15 35-1 3-4-5-3-9-5-10-3-8v-4h-2v-4h-2l-8-24z" fill="#B3B3B3"/>
<path transform="translate(886,789)" d="m0 0h7l5 4-1 8h-4l-5-3-4-1 4 8-4-1-2-5v-6z" fill="#B2B2B2"/>
<path transform="translate(1396,1167)" d="m0 0 3 1 13 28 9 20 7 15-1 2-6-11-8-16-1-5h-2l-7-16-5-13z" fill="#B1B1B1"/>
<path transform="translate(420,936)" d="m0 0v3l-10 18-8 17-14 36-1-4 6-16 10-27 10-18z" fill="#BCBCBC"/>
<path transform="translate(989,221)" d="m0 0h9l6 3 2 3-1 3-4-5-3-1h-9l-8 2-6 4h-2l-2 4-1 4v9l2 6 4 2 9 2h5l-4 2h-8l-8-6-3-8v-7l2-5 5-6 8-5z" fill="#B1B1B1"/>
<path transform="translate(772,201)" d="m0 0 5 2h4l1 3-1 1-14 2-11 7-5 4-1-3 5-7h2v-2l5-3 10-2z" fill="#B1B1B1"/>
<path transform="translate(1706,1739)" d="m0 0 1 4-6 20-11 27-10 19-4 5-1-2 5-8 7-14 8-19 5-14z" fill="#B4B4B4"/>
<path transform="translate(922,244)" d="m0 0 11 1 5 2v2l-8-2h-11l-9 3-7 5-6 12v11l4 10 2 4-5-5-4-9v-8l2-7 4-8 7-6 5-3z" fill="#B1B1B1"/>
<path transform="translate(1616,1626)" d="m0 0 2 2 8 24-1 4-5-5-7-14v-6h2v2l2 1-1-2z" fill="#2D2D2D"/>
<path transform="translate(1479,1847)" d="m0 0 2 1-9 8-18 11-8 4-3-1 14-11 10-4z" fill="#2C2C2C"/>
<path transform="translate(1296,152)" d="m0 0 4 2 12 12 6 9-1 2-16-13-3-5-2-4z" fill="#E1E1E1"/>
<path transform="translate(818,145)" d="m0 0 2 1-3 5-3 18v13h-2l-2-6v-12l2-13 2-4z" fill="#B3B3B3"/>
<path transform="translate(370,1669)" d="m0 0 4 1-41 14-18 8v-3l12-6 16-6 17-5z" fill="#B4B4B4"/>
<path transform="translate(1129,1691)" d="m0 0m-1 1 2 2-27 10-27 11-4 2-3-1 14-7 13-5 11-5 16-6z" fill="#B5B5B5"/>
<path transform="translate(1649,1317)" d="m0 0 7 6 15 16 24 24h-3l-8-7-4-4v-2l-4-2-1-3h-3l-7-8-9-10v-2l-3-1-4-5z" fill="#B1B1B1"/>
<path transform="translate(1355,1667)" d="m0 0 10 1 26 5 20 6 3 2v2l-11-3-21-6-27-6z" fill="#B4B4B4"/>
<path transform="translate(1399,932)" d="m0 0h2l12 24 11 23-1 2-4-7-9-15-11-25z" fill="#B1B1B1"/>
<path transform="translate(1772,1198)" d="m0 0 5 2 9 8 1 6-2 1-13-8v-3l1 2h3l-3-5z" fill="#252525"/>
<path transform="translate(618,1261)" d="m0 0 2 1-10 9-11 9-11 11-2-1v-5l5-2 15-13z" fill="#B1B1B1"/>
<path transform="translate(663,1230)" d="m0 0m-1 1m-2 1h2l-1 3-14 8-12 8-12 9-2-1 10-9 14-9z" fill="#B3B3B3"/>
<path transform="translate(1360,406)" d="m0 0h2l-1 8-4 11-10 18-11 13v-3l10-13 6-10 3-8 3-6z" fill="#2E2E2E"/>
<path transform="translate(718,174)" d="m0 0 8 1v1l-12 2-7 4-9 9-8 11-1-4 6-8 5-5 9-8z" fill="#B3B3B3"/>
<path transform="translate(498,1640)" d="m0 0h10v2l-35 4-14 2 1-3 27-4z" fill="#BABABA"/>
<path transform="translate(554,503)" d="m0 0 6 1 9 4 6 7v2l-4-1-12-7z" fill="#B3B3B3"/>
<path transform="translate(893,1800)" d="m0 0 2 1-19 10-27 12-3-1 5-3 20-9 16-7z" fill="#BDBDBD"/>
<path transform="translate(451,922)" d="m0 0h1v33l-4 1-3-3v-2l3-2 1-3 1-20z" fill="#B1B1B1"/>
<path transform="translate(498,843)" d="m0 0 5 2-2 4-11 3h-14l-11-2v-1h21l10-2z" fill="#B5B5B5"/>
<path transform="translate(1284,638)" d="m0 0 2 2 10 31 3 10-1 4-5-12-3-11-6-21z" fill="#B9B9B9"/>
<path transform="translate(1336,784)" d="m0 0 3 4 11 27 2 7-5-5-7-18-4-11z" fill="#B6B6B6"/>
<path transform="translate(1319,739)" d="m0 0 2 2 12 32v3h-2l-6-15-6-18z" fill="#B5B5B5"/>
<path transform="translate(1268,846)" d="m0 0h2l12 34-1 3-3-4-5-15-5-16z" fill="#B2B2B2"/>
<path transform="translate(885,825)" d="m0 0h9l4 2v1l-11 1-7 4-3 5-1 4h-2l1-8 5-5z" fill="#B1B1B1"/>
<path transform="translate(893,236)" d="m0 0 1 2 3-1 2 1v2h-2l-2 6-5 4-3 7-3 2v-4l3-7 4-1 1-10z" fill="#B1B1B1"/>
<path transform="translate(745,179)" d="m0 0 9 6 10 9 2 1v2l-5-1-9-8-11-7 2-1 2 1z" fill="#B6B6B6"/>
<path transform="translate(866,158)" d="m0 0h2l-2 12-1 18-3-3v-18z" fill="#B1B1B1"/>
<path transform="translate(529,1188)" d="m0 0 2 1-16 15-22 22v-3l33-33z" fill="#B3B3B3"/>
<path transform="translate(1287,897)" d="m0 0 2 3 7 20 4 12-1 2-4-6-7-22z" fill="#B3B3B3"/>
<path transform="translate(846,1821)" d="m0 0m-3 1h3v2l-31 14v-3l8-4z" fill="#B1B1B1"/>
<path transform="translate(1483,1088)" d="m0 0 4 4 16 27-1 2-6-8-12-20z" fill="#B4B4B4"/>
<path transform="translate(935,1779)" d="m0 0 2 1-19 10-20 10-3-1 12-7 20-9z" fill="#C2C2C2"/>
<path transform="translate(778,190)" d="m0 0 5 1 1 2 4 2 3 3 3 1 2-2 1 1v6l-2 2-6-4-2-4-9-6z" fill="#B1B1B1"/>
<path transform="translate(1320,986)" d="m0 0 3 4 11 29-1 2-5-9-7-20z" fill="#B4B4B4"/>
<path transform="translate(1609,1885)" d="m0 0m-1 1m-1 1m-3 1h3l-2 4-15 10-8 4 2-4 16-10z" fill="#B5B5B5"/>
<path transform="translate(523,1637)" d="m0 0h17v2l-22 2h-10l2-2z" fill="#B2B2B2"/>
<path transform="translate(967,744)" d="m0 0 7 1 8 3 14 2 3 2h-8l-19-4-8-1z" fill="#B2B2B2"/>
<path transform="translate(903,215)" d="m0 0 7 1 3 5v7h-1l-2-7-1-2h-8l-4 4-1 5-2-3 2-6z" fill="#B1B1B1"/>
<path transform="translate(1666,1486)" d="m0 0h2l12 23 2 7-4-4-12-24z" fill="#B4B4B4"/>
<path transform="translate(1040,220)" d="m0 0h11v3l-5-1-14 3-10 8h-2l2-4 8-6z" fill="#B1B1B1"/>
<path transform="translate(888,724)" d="m0 0 5 1 2 2v4l-5 3-5-5v-3z" fill="#1B1B1B"/>
<path transform="translate(1190,870)" d="m0 0h2l6 20v10l-2-3-6-23z" fill="#B3B3B3"/>
<path transform="translate(1462,1052)" d="m0 0 3 3 16 28v3l-7-10-12-21z" fill="#B7B7B7"/>
<path transform="translate(338,1679)" d="m0 0m-2 1 3 1-3 2-21 9v-3l12-6z" fill="#B7B7B7"/>
<path transform="translate(1683,1518)" d="m0 0 2 2 9 22-1 5-2-3-8-23z" fill="#B6B6B6"/>
<path transform="translate(479,920)" d="m0 0 3 3 2 5h-8l-7-3v-1l8-1z" fill="#B3B3B3"/>
<path transform="translate(887,705)" d="m0 0h5v2h2v4l-3 2-5-1-1-4z" fill="#1B1B1B"/>
<path transform="translate(1098,1703)" d="m0 0h2v2l-24 10-4 2-3-1 14-7 13-5z" fill="#B8B8B8"/>
<path transform="translate(1541,1465)" d="m0 0 3 4 11 22 1 5-4-4-3-8-6-11-2-5z" fill="#B6B6B6"/>
<path transform="translate(1604,1596)" d="m0 0 4 4 5 12 1 6-3-4-3-5-4-10z" fill="#323232"/>
<path transform="translate(1513,1137)" d="m0 0 4 4 11 17 4 6-1 2-8-10-4-8-6-9z" fill="#B2B2B2"/>
<path transform="translate(1434,786)" d="m0 0 3 1 10 18-1 3-6-9-6-11z" fill="#B2B2B2"/>
<path transform="translate(1466,1312)" d="m0 0 3 4 9 19 2 6-3-3-11-22z" fill="#B2B2B2"/>
<path transform="translate(887,793)" d="m0 0h7l1 5-1 2-5-1-3-3z" fill="#212121"/>
<path transform="translate(1056,591)" d="m0 0 2 2-17 7-5 1v-2z" fill="#1B1B1B"/>
<path transform="translate(1490,882)" d="m0 0 4 2 10 16v3l-8-10-6-9z" fill="#B2B2B2"/>
<path transform="translate(782,548)" d="m0 0 3 1 2 5 3 6-1 2-8-9z" fill="#B1B1B1"/>
<path transform="translate(1119,933)" d="m0 0h10l-4 4-7 3-3-1 4-1-1-4z" fill="#363636"/>
<path transform="translate(1417,1684)" d="m0 0 6 1 6 3 12 7-3 1-21-11z" fill="#B4B4B4"/>
<path transform="translate(406,960)" d="m0 0 1 3-7 16h-2l3-10 3-7z" fill="#B2B2B2"/>
<path transform="translate(58,1874)" d="m0 0 1 2-5 7-5 5-3 1 2-4 7-8z" fill="#B1B1B1"/>
<path transform="translate(1372,1444)" d="m0 0 2 2 6 14-1 3-4-5-3-11z" fill="#2D2D2D"/>
<path transform="translate(1292,665)" d="m0 0h2l5 16-1 4-5-12z" fill="#B8B8B8"/>
<path transform="translate(861,596)" d="m0 0 6 1 15 6-4 2-17-8z" fill="#B4B4B4"/>
<path transform="translate(386,1009)" d="m0 0 1 4-7 18-2-1 2-6z" fill="#BABABA"/>
<path transform="translate(718,174)" d="m0 0 8 1v1l-12 2-7 4-4 3 2-4 6-5z" fill="#B8B8B8"/>
<path transform="translate(663,1230)" d="m0 0m-1 1m-2 1h2l-1 3-14 8-2 1 2-4z" fill="#bbb"/>
<path transform="translate(1686,1794)" d="m0 0 1 2-10 18-2-2 5-8 5-9z" fill="#B7B7B7"/>
<path transform="translate(618,1261)" d="m0 0 2 1-10 9-8 6 2-4 7-7z" fill="#B7B7B7"/>
<path transform="translate(1552,1917)" d="m0 0m-1 1m-2 1h2v2l-17 6 2-4z" fill="#B5B5B5"/>
<path transform="translate(1586,1559)" d="m0 0 3 4 5 11v5l-3-4-5-13z" fill="#B1B1B1"/>
<path transform="translate(1606,1398)" d="m0 0 5 5 5 7-5-1-5-8z" fill="#B1B1B1"/>
<path transform="translate(1296,152)" d="m0 0 4 2 8 8h-3l-8-5z" fill="#B5B5B5"/>
<path transform="translate(1360,406)" d="m0 0h2l-1 8-3 9-2-2 3-10z" fill="#3F3F3F"/>
<path transform="translate(350,1072)" d="m0 0 1 3-5 15h-1l1-10 3-7z" fill="#BABABA"/>
<path transform="translate(827,1829)" d="m0 0m-1 1m-3 1h3v2l-12 5 2-4z" fill="#B5B5B5"/>
<path transform="translate(1058,1383)" d="m0 0m-1 1m-1 1m-1 1m-1 1m-2 1h2l-2 4-6 4-3-1z" fill="#2E2E2E"/>
<path transform="translate(1315,507)" d="m0 0 2 2 4 11v2l-3-1-3-10z" fill="#ACACAC"/>
<path transform="translate(1595,1895)" d="m0 0m-1 1m-2 1h2l-1 3-11 6 2-4z" fill="#B3B3B3"/>
<path transform="translate(1692,1780)" d="m0 0 1 3-5 11h-2l3-9z" fill="#B1B1B1"/>
<path transform="translate(378,1030)" d="m0 0 1 3-5 10-2-1 2-6z" fill="#B3B3B3"/>
<path transform="translate(492,645)" d="m0 0 5 1 1 3h-4l1 5-3-3-1-4z" fill="#252525"/>
<path transform="translate(1616,1411)" d="m0 0 5 4 6 8-1 2-8-9z" fill="#B3B3B3"/>
<path transform="translate(1420,1218)" d="m0 0h2l6 13-1 2-6-11z" fill="#B6B6B6"/>
<path transform="translate(1724,1161)" d="m0 0 4 2 10 8h-3l-5-3v-2l-4-2z" fill="#B1B1B1"/>
<path transform="translate(1043,757)" d="m0 0 2 4 2 11-3-3-3-10h2z" fill="#B9B9B9"/>
<path transform="translate(1197,1058)" d="m0 0 2 1 5 13-1 2-3-4z" fill="#B9B9B9"/>
<path transform="translate(1345,442)" d="m0 0v3l-8 10-2 1 2-4 7-9z" fill="#2B2B2B"/>
<path transform="translate(104,1832)" d="m0 0h2l-2 4-7 6v-3l3-1 2-4z" fill="#4E4E4E"/>
<path transform="translate(1092,863)" d="m0 0 1 3-2 7-4 1 3-9z" fill="#FEFEFE"/>
<path transform="translate(501,691)" d="m0 0h2l-1 3z" fill="#666"/>
<path transform="translate(480,1801)" d="m0 0" fill="#B1B1B1"/>
</svg>
